<?xml version="1.0" ?><svg id="Layer_1" style="enable-background:new 0 0 128 128;" version="1.1" viewBox="0 0 128 128" xml:space="preserve" xmlns="http://www.w3.org/2000/svg" xmlns:xlink="http://www.w3.org/1999/xlink"><style type="text/css">
	.st0{fill-rule:evenodd;clip-rule:evenodd;}
	.st1{fill-rule:evenodd;clip-rule:evenodd;fill:#7ACED7;}
</style><g id="XMLID_15_"><path class="st0" d="M26.3,3c8.8,0,16,7.2,16,16s-7.2,16-16,16s-16-7.2-16-16S17.4,3,26.3,3L26.3,3z M26.3,7   c-6.6,0-12,5.4-12,12c0,6.6,5.4,12,12,12s12-5.4,12-12C38.3,12.4,32.9,7,26.3,7L26.3,7z M65.7,3c8.8,0,16,7.2,16,16s-7.2,16-16,16   s-16-7.2-16-16S56.9,3,65.7,3L65.7,3z M65.7,7c-6.6,0-12,5.4-12,12c0,6.6,5.4,12,12,12c6.6,0,12-5.4,12-12C77.7,12.4,72.3,7,65.7,7   L65.7,7z M4,49.1h80.2c2.2,0,4,1.8,4,4v18l34.1-15.9c1.3-0.6,2.7-0.5,3.8,0.3c1.2,0.8,1.9,2,1.9,3.4v54.7c0,1.4-0.7,2.6-1.9,3.4   c-1.2,0.8-2.6,0.8-3.8,0.3l-34.1-15.9v18c0,2.2-1.8,4-4,4H4c-2.2,0-4-1.8-4-4V53.1C0,50.9,1.8,49.1,4,49.1L4,49.1z M88.2,75.5v21.3   l35.8,16.7V86.2V58.8L88.2,75.5L88.2,75.5z M4,53.1v66.1h80.2V53.1H4L4,53.1z M66.4,86.2c0-3.3-2.7-6-6-6H26.8c-3.3,0-6,2.7-6,6   c0,3.3,2.7,6,6,6h33.6C63.7,92.2,66.4,89.5,66.4,86.2z" id="XMLID_22_"/><path class="st1" d="M4,53.1h80.2v66.1H4V53.1L4,53.1z M66.4,86.2c0-3.3-2.7-6-6-6H26.8c-3.3,0-6,2.7-6,6   c0,3.3,2.7,6,6,6h33.6C63.7,92.2,66.4,89.5,66.4,86.2L66.4,86.2z M26.3,7c6.6,0,12,5.4,12,12c0,6.6-5.4,12-12,12s-12-5.4-12-12   C14.3,12.4,19.6,7,26.3,7L26.3,7z M65.7,7c6.6,0,12,5.4,12,12c0,6.6-5.4,12-12,12c-6.6,0-12-5.4-12-12C53.7,12.4,59.1,7,65.7,7   L65.7,7z M88.2,75.5v21.3l35.8,16.7V86.2V58.8L88.2,75.5z" id="XMLID_16_"/></g></svg>