<svg width="60" height="42.46" xmlns="http://www.w3.org/2000/svg">
 <title/>

 <g>
  <title>background</title>
  <rect fill="none" id="canvas_background" height="402" width="582" y="-1" x="-1"/>
 </g>
 <g>
  <title>Layer 1</title>
  <path fill="#ff0000" id="svg_1" d="m47.54,0l-35.08,0a12.46,12.46 0 0 0 -12.46,12.46l0,17.54a12.46,12.46 0 0 0 12.46,12.46l35.08,0a12.46,12.46 0 0 0 12.46,-12.46l0,-17.54a12.46,12.46 0 0 0 -12.46,-12.46zm-8.43,22.08l-16.41,7.83a0.66,0.66 0 0 1 -0.94,-0.59l0,-16.15a0.66,0.66 0 0 1 1,-0.59l16.37,8.32a0.66,0.66 0 0 1 -0.02,1.18z"/>
 </g>
</svg>