<?xml version="1.0" ?><svg viewBox="0 0 32 32" xmlns="http://www.w3.org/2000/svg"><title/><g data-name="Layer 48" id="Layer_48"><path d="M9,11.3a.5.5,0,0,0-.5-.5H4a.5.5,0,1,0,0,1H8.48A.5.5,0,0,0,9,11.3Z"/><path d="M10.71,20.6H6.25a.5.5,0,1,0,0,1h4.46a.5.5,0,0,0,0-1Z"/><path d="M10.71,18.53H6.25a.5.5,0,0,0,0,1h4.46a.5.5,0,0,0,0-1Z"/><path d="M19.69,9.27a2,2,0,1,0,2,2A2,2,0,0,0,19.69,9.27Zm0,3.07a1,1,0,1,1,1-1A1,1,0,0,1,19.69,12.34Z"/><path d="M30.88,9.12a.49.49,0,0,0-.53.08L23.7,14.91V10.33a3.5,3.5,0,0,0-3.49-3.49H4.9A3.5,3.5,0,0,0,1.4,10.33V21.67A3.5,3.5,0,0,0,4.9,25.16H20.21a3.5,3.5,0,0,0,3.49-3.49V17.09l6.64,5.71a.5.5,0,0,0,.33.12.49.49,0,0,0,.21,0,.5.5,0,0,0,.29-.45V9.58A.5.5,0,0,0,30.88,9.12ZM22.7,21.67a2.5,2.5,0,0,1-2.49,2.49H4.9A2.5,2.5,0,0,1,2.4,21.67V10.33A2.5,2.5,0,0,1,4.9,7.84H20.21a2.5,2.5,0,0,1,2.49,2.49Zm7.46-.34L24,16l6.2-5.33Z"/></g></svg>